<svg width="25" height="25" viewBox="0 0 25 25" fill="none" xmlns="http://www.w3.org/2000/svg">
<path d="M5.22534 13.2597C5.22534 11.9019 5.22534 11.223 5.4998 10.6263C5.77426 10.0296 6.28971 9.58775 7.32059 8.70413L8.32059 7.84699C10.1839 6.24986 11.1156 5.45129 12.2253 5.45129C13.3351 5.45129 14.2668 6.24986 16.1301 7.84699L17.1301 8.70413C18.161 9.58775 18.6764 10.0296 18.9509 10.6263C19.2253 11.223 19.2253 11.9019 19.2253 13.2597V17.5001C19.2253 19.3857 19.2253 20.3285 18.6396 20.9143C18.0538 21.5001 17.111 21.5001 15.2253 21.5001H9.22534C7.33972 21.5001 6.39691 21.5001 5.81113 20.9143C5.22534 20.3285 5.22534 19.3857 5.22534 17.5001V13.2597Z" stroke="#33363F" stroke-width="2"/>
<path d="M14.7253 21.5V16.5C14.7253 15.9477 14.2776 15.5 13.7253 15.5H10.7253C10.1731 15.5 9.72534 15.9477 9.72534 16.5V21.5" stroke="#33363F" stroke-width="2" stroke-linecap="round" stroke-linejoin="round"/>
</svg>
