<svg width="25" height="25" viewBox="0 0 25 25" fill="none" xmlns="http://www.w3.org/2000/svg">
<path d="M17.9324 14.2071L20.5806 16.8552C20.9367 17.2113 20.9367 17.7887 20.5806 18.1448C18.6554 20.07 15.6075 20.2866 13.4293 18.653L11.8539 17.4714C10.1104 16.1638 8.56156 14.615 7.25391 12.8714L6.07235 11.296C4.43875 9.11788 4.65536 6.06999 6.58057 4.14477C6.93667 3.78867 7.51401 3.78867 7.87011 4.14477L10.5182 6.79289C10.9088 7.18342 10.9088 7.81658 10.5182 8.20711L9.49709 9.22825C9.3348 9.39054 9.29457 9.63846 9.39721 9.84373C10.5839 12.2171 12.5083 14.1415 14.8816 15.3281C15.0869 15.4308 15.3348 15.3905 15.4971 15.2283L16.5182 14.2071C16.9088 13.8166 17.5419 13.8166 17.9324 14.2071Z" stroke="#33363F" stroke-width="2"/>
</svg>
